<svg width="460" height="462" viewBox="0 0 460 462" fill="none" xmlns="http://www.w3.org/2000/svg">
<g clip-path="url(#clip0_113_2)">
<path d="M88.771 292.56L87.0135 294.239C87.0135 294.239 82.0927 315.228 83.4986 317.327C84.9045 319.426 96.1522 324.044 96.8552 321.105C97.5582 318.167 88.771 292.56 88.771 292.56Z" fill="#3F3D56"/>
<path d="M140.791 307.252C140.791 307.252 146.064 325.303 146.064 330.341C146.064 335.378 145.361 364.763 145.361 364.763C145.361 364.763 145.009 377.356 137.628 372.319C130.247 367.281 137.628 363.923 137.628 363.923C137.628 363.923 137.277 330.76 134.465 326.143C131.653 321.525 130.598 314.809 130.598 314.809L140.791 307.252Z" fill="#A0616A"/>
<path d="M83.1471 437.805C83.1471 437.805 77.8748 434.447 76.8203 436.966C75.7658 439.484 70.142 453.337 70.845 455.016C71.548 456.695 75.4144 463.412 79.9837 461.733C84.5531 460.054 84.9046 451.238 84.9046 451.238L85.2561 441.163L83.1471 437.805Z" fill="#2F2E41"/>
<path d="M97.4647 262.449C98.2395 262.885 99.1586 263.145 99.6455 263.986C100.006 264.61 100.042 265.42 100.305 266.109C100.593 266.792 101.087 267.318 101.688 267.581C102.289 267.843 102.951 267.822 103.539 267.522C103.683 266.686 104.09 265.947 104.677 265.459C104.973 265.227 105.324 265.113 105.678 265.137C106.032 265.16 106.37 265.318 106.643 265.588C107.368 266.413 107.111 267.851 107.449 268.977C107.767 269.768 108.203 270.483 108.737 271.086C109.507 272.146 110.119 273.389 111.046 274.252C111.972 275.114 113.377 275.488 114.298 274.616C115.072 273.884 115.232 272.531 115.044 271.373C114.856 270.215 114.39 269.149 114.127 268.012C113.273 264.317 114.635 260.372 114.214 256.573C113.674 251.704 110.209 247.858 106.341 246.188C104.731 245.406 102.969 245.183 101.258 245.545C99.4895 246.017 97.9785 247.362 96.2845 248.131C94.4729 248.954 92.503 249.097 90.6072 249.578C88.7114 250.059 86.7605 250.989 85.6603 252.894C84.893 254.223 84.6293 255.874 83.9934 257.299C83.2614 258.925 82.0757 260.193 80.6422 260.884L82.6462 260.748C82.3103 261.816 81.7624 262.771 81.0495 263.531C81.9892 263.76 82.9661 263.606 83.8238 263.093C83.8082 263.585 83.7084 264.068 83.5305 264.512C83.3526 264.956 83.1004 265.352 82.7894 265.675C84.3315 265.62 85.9577 265.535 87.2607 264.548C87.899 264.065 88.4195 263.392 89.0201 262.844C90.3004 261.677 91.8886 261.123 93.437 260.592C94.25 260.313 95.2286 259.926 95.9639 260.55C96.5762 261.07 96.6729 262.004 97.4647 262.449Z" fill="#2F2E41"/>
<path d="M131.653 286.683L136.925 291.721L143.955 311.031C143.955 311.031 134.113 320.266 131.653 319.006C129.192 317.747 124.974 295.499 124.974 295.499L131.653 286.683Z" fill="#3F3D56"/>
<path d="M79.245 306.185L79.1569 306.957L78.6124 311.718L77.7206 319.516L77.4973 321.468C77.4803 321.617 77.4187 321.754 77.3238 321.853C77.2289 321.951 77.1072 322.006 76.9813 322.006H71.0345C70.9088 322.006 70.7873 321.952 70.6924 321.853C70.5976 321.755 70.5358 321.618 70.5185 321.47L70.2913 319.516L69.3845 311.718L68.8304 306.954L68.7413 306.187C68.731 306.099 68.7367 306.009 68.7579 305.924C68.7791 305.839 68.8154 305.76 68.8642 305.693C68.9131 305.626 68.9735 305.572 69.0412 305.535C69.109 305.498 69.1826 305.479 69.257 305.479H78.729C78.8033 305.479 78.8768 305.498 78.9445 305.535C79.0122 305.572 79.0725 305.625 79.1213 305.692C79.1702 305.759 79.2065 305.838 79.2279 305.923C79.2492 306.008 79.2551 306.097 79.245 306.185Z" fill="white"/>
<path d="M78.1322 303.413H69.8845C69.5969 303.413 69.3637 303.692 69.3637 304.035V304.857C69.3637 305.201 69.5969 305.479 69.8845 305.479H78.1322C78.4199 305.479 78.6531 305.201 78.6531 304.857V304.035C78.6531 303.692 78.4199 303.413 78.1322 303.413Z" fill="#2F2E41"/>
<path d="M79.9901 306.512C76.0141 307.031 72.0027 307.031 68.0267 306.512C67.9583 306.512 67.8905 306.496 67.8274 306.465C67.7642 306.434 67.7067 306.388 67.6584 306.33C67.61 306.272 67.5717 306.204 67.5455 306.128C67.5193 306.053 67.5058 305.972 67.5058 305.89V305.068C67.5058 304.903 67.5607 304.745 67.6584 304.629C67.7561 304.512 67.8885 304.446 68.0267 304.446C71.9995 305.03 76.0173 305.03 79.9901 304.446C80.1283 304.446 80.2607 304.512 80.3584 304.629C80.4561 304.745 80.511 304.903 80.511 305.068V305.89C80.511 306.055 80.4561 306.213 80.3584 306.33C80.2607 306.447 80.1283 306.512 79.9901 306.512Z" fill="#2F2E41"/>
<path d="M77.9655 319.232H69.9579C69.886 319.232 69.8165 319.202 69.7618 319.146C69.7071 319.09 69.6709 319.013 69.6596 318.928L68.7945 312.419C68.7877 312.368 68.7903 312.315 68.8021 312.265C68.814 312.215 68.8348 312.168 68.8631 312.128C68.8915 312.089 68.9267 312.057 68.9663 312.035C69.006 312.013 69.0491 312.002 69.0928 312.002H78.8883C78.9322 312.002 78.9756 312.013 79.0154 312.035C79.0553 312.058 79.0906 312.09 79.1189 312.13C79.1473 312.17 79.168 312.217 79.1795 312.268C79.1911 312.318 79.1933 312.371 79.186 312.423L78.2632 318.932C78.2513 319.016 78.2149 319.092 78.1604 319.147C78.1059 319.202 78.0368 319.232 77.9655 319.232Z" fill="#2F2E41"/>
</g>
<defs>
<clipPath id="clip0_113_2">
<rect width="460" height="462" fill="white"/>
</clipPath>
</defs>
</svg>
